<svg xmlns="http://www.w3.org/2000/svg" viewBox="0 0 1200 900" fill="none" role="img" aria-label="Abstract engineering background">
  <rect width="1200" height="900" fill="transparent"/>
  <circle cx="860" cy="260" r="210" fill="dodgerblue" fill-opacity="0.14"/>
  <circle cx="930" cy="300" r="132" fill="dodgerblue" fill-opacity="0.18"/>
  <circle cx="760" cy="520" r="168" fill="dodgerblue" fill-opacity="0.1"/>
  <path d="M742 165h286M694 242h374M646 319h462M668 396h414M710 473h330M764 550h212" stroke="dodgerblue" stroke-opacity="0.22" stroke-width="10" stroke-linecap="round"/>
  <path d="M760 165v422M836 132v496M912 154v442M988 210v366" stroke="dodgerblue" stroke-opacity="0.12" stroke-width="10" stroke-linecap="round"/>
  <circle cx="760" cy="165" r="10" fill="dodgerblue"/>
  <circle cx="836" cy="132" r="10" fill="dodgerblue"/>
  <circle cx="912" cy="154" r="10" fill="dodgerblue"/>
  <circle cx="988" cy="210" r="10" fill="dodgerblue"/>
  <circle cx="760" cy="587" r="10" fill="dodgerblue"/>
  <circle cx="836" cy="628" r="10" fill="dodgerblue"/>
  <circle cx="912" cy="596" r="10" fill="dodgerblue"/>
  <circle cx="988" cy="576" r="10" fill="dodgerblue"/>
</svg>
